<svg width="152" height="40" viewBox="0 0 152 40" fill="none" xmlns="http://www.w3.org/2000/svg">
<path d="M3.70147 22.8783V15.764H0V15.3268L5.33756 9.34253C6.51467 8.00276 8.02134 6.28643 9.8589 4.18982H10.2882V10.6539H15.498V15.764H10.2882V22.0078C10.2882 23.2017 10.4967 24.0655 10.9136 24.6054C11.3289 25.1458 12.0961 25.412 13.2155 25.412C14.2772 25.412 15.3402 25.1491 16.4019 24.6268V29.9111C15.3963 30.494 13.8199 30.7853 11.6668 30.7853C6.35557 30.7853 3.70147 28.1484 3.70147 22.8783Z" fill="#1679D5"/>
<path d="M19.6721 28.0774C17.8362 26.272 16.9166 23.7989 16.9166 20.6538C16.9166 17.5087 17.8065 14.9929 19.5863 13.0986C21.3662 11.2081 23.6611 10.2594 26.4743 10.2594C29.0003 10.2594 30.9659 11.0447 32.3725 12.6189L32.5023 10.6535H38.4863V30.3905H32.4586L32.2868 28.3365C30.9379 29.9676 28.9426 30.785 26.3028 30.785C23.7188 30.7853 21.51 29.8827 19.6721 28.0774ZM32.0293 20.5225C32.0293 19.0085 31.6404 17.8359 30.8662 17.008C30.092 16.1764 29.0863 15.7643 27.8532 15.7643C26.648 15.7643 25.6564 16.1977 24.8822 17.0719C24.108 17.9462 23.7191 19.1117 23.7191 20.5652C23.7191 22.022 24.0994 23.1628 24.8612 23.9944C25.6214 24.8223 26.6044 25.2381 27.8095 25.2381C29.0426 25.2381 30.0553 24.8152 30.8452 23.9731C31.6334 23.1273 32.0293 21.9794 32.0293 20.5225Z" fill="#1679D5"/>
<path d="M40.6572 39.0371V10.6539H46.6412L46.7709 12.445C48.2055 10.9882 50.1852 10.2594 52.7112 10.2594C55.5227 10.2594 57.7983 11.2294 59.5344 13.1626C61.2706 15.0992 62.1391 17.5513 62.1391 20.5222C62.1391 23.5499 61.2282 26.0163 59.4063 27.9244C57.5828 29.8292 55.351 30.785 52.7112 30.785C50.4147 30.785 48.5928 30.1276 47.2439 28.8196V39.0364H40.6572V39.0371ZM55.3373 20.4335C55.3373 19.0369 54.957 17.9103 54.1969 17.0506C53.4367 16.1906 52.424 15.7643 51.1612 15.7643C49.898 15.7643 48.8803 16.2156 48.1045 17.1146C47.3303 18.0172 46.943 19.1543 46.943 20.5225C46.943 22.0081 47.3303 23.1628 48.1045 23.9944C48.8806 24.8223 49.914 25.2381 51.2052 25.2381C52.4684 25.2381 53.472 24.7939 54.2182 23.9055C54.964 23.017 55.3373 21.862 55.3373 20.4335Z" fill="#1679D5"/>
<path d="M65.5374 28.0774C63.7015 26.272 62.7819 23.7989 62.7819 20.6538C62.7819 17.5087 63.6718 14.9929 65.4516 13.0986C67.2315 11.2081 69.5264 10.2594 72.3396 10.2594C74.8656 10.2594 76.8312 11.0447 78.2378 12.6189L78.3676 10.6535H84.3516V30.3905H78.3236L78.1518 28.3365C76.8029 29.9676 74.8075 30.785 72.1678 30.785C69.5841 30.7853 67.3753 29.8827 65.5374 28.0774ZM77.8946 20.5225C77.8946 19.0085 77.5057 17.8359 76.7315 17.008C75.9573 16.1764 74.9516 15.7643 73.7185 15.7643C72.5133 15.7643 71.5217 16.1977 70.7475 17.0719C69.9733 17.9462 69.5844 19.1117 69.5844 20.5652C69.5844 22.022 69.9646 23.1628 70.7265 23.9944C71.4867 24.8223 72.4697 25.2381 73.6748 25.2381C74.9079 25.2381 75.9206 24.8152 76.7105 23.9731C77.4987 23.1273 77.8946 21.9794 77.8946 20.5225Z" fill="#F0573B"/>
<path d="M88.526 22.8783V15.764H84.8245V15.3268L90.1621 9.34253C91.3392 8.00276 92.8459 6.28643 94.6834 4.18982H95.1127V10.6539H100.323V15.764H95.1127V22.0078C95.1127 23.2017 95.3212 24.0655 95.7381 24.6054C96.1534 25.1458 96.9206 25.412 98.04 25.412C99.1017 25.412 100.165 25.1491 101.226 24.6268V29.9111C100.221 30.494 98.6444 30.7853 96.4913 30.7853C91.1798 30.7853 88.526 28.1484 88.526 22.8783Z" fill="#1679D5"/>
<path d="M103.335 30.3908V10.6539H109.319L109.449 12.8358C110.596 11.1194 112.332 10.2594 114.657 10.2594C115.002 10.2594 115.202 10.2736 115.26 10.3058V16.1977C114.917 15.8496 114.242 15.6753 113.236 15.6753C111.859 15.7322 110.97 16.1693 110.567 16.9867C110.165 17.8004 109.95 19.2433 109.922 21.3078V30.3908H103.335Z" fill="#1679D5"/>
<path d="M119.284 23.8415V15.764H116.399V10.6539H125.871V23.447C125.871 24.1755 126.005 24.7015 126.279 25.0213C126.552 25.341 127.018 25.501 127.678 25.501C128.08 25.501 128.439 25.4547 128.754 25.3694V30.174C128.008 30.4619 126.974 30.6074 125.655 30.6074C123.387 30.6074 121.76 30.0495 120.768 28.9266C119.778 27.8074 119.284 26.1124 119.284 23.8415ZM118.809 3.84136C118.809 2.73605 119.176 1.81918 119.908 1.09076C120.64 0.362348 121.537 0 122.598 0C123.66 0 124.55 0.362348 125.268 1.0911C125.985 1.81952 126.344 2.75059 126.344 3.88433C126.344 5.02144 125.999 5.94541 125.31 6.65623C124.622 7.37044 123.718 7.7294 122.598 7.7294C121.479 7.7294 120.568 7.36334 119.864 6.63492C119.161 5.90989 118.809 4.97509 118.809 3.84136Z" fill="#1679D5"/>
<path d="M130.518 39.0371V10.6539H136.502L136.632 12.445C138.066 10.9882 140.046 10.2594 142.572 10.2594C145.384 10.2594 147.659 11.2294 149.395 13.1626C151.131 15.0995 152 17.5517 152 20.5225C152 23.5502 151.089 26.0166 149.267 27.9248C147.444 29.8295 145.212 30.7853 142.572 30.7853C140.276 30.7853 138.454 30.128 137.105 28.82V39.0368H130.518V39.0371ZM145.198 20.4335C145.198 19.0369 144.818 17.9103 144.057 17.0506C143.297 16.1906 142.285 15.7643 141.022 15.7643C139.759 15.7643 138.741 16.2156 137.965 17.1146C137.191 18.0172 136.804 19.1543 136.804 20.5225C136.804 22.0081 137.191 23.1628 137.965 23.9944C138.741 24.8223 139.775 25.2381 141.066 25.2381C142.329 25.2381 143.333 24.7939 144.079 23.9055C144.825 23.017 145.198 21.862 145.198 20.4335Z" fill="#1679D5"/>
</svg>
